# xmcd
#
# Track frame offsets:
#	150
#	34700
#	84924
#	112299
#	172721
#	192894
#	221175
#	252605
#	293299
#	335596
#
# Disc length: 4718
#
# Revision: 1
# Processed by: cddbd v1.5.1PL0 Copyright (c) Steve Scherf et al.
# Submitted via: ExactAudioCopy v0.90b4
# Normalized: r0:DSETVAR1,TDELIM( - )
#
DISCID=8c126c0a
DTITLE=Various Artist - Blues Picks [Part Two]
DYEAR=2001
DGENRE=Blues
TTITLE0=Leslie West - Spoonfull
TTITLE1=Popa Chubby - Long Distance
TTITLE2=Rory Gallagher - As The Crow
TTITLE3=Bernhard Allison - Tin Pan
TTITLE4=Robben Ford - Red Rooster
TTITLE5=John Mayall - Blues For The Lost Days
TTITLE6=Jim Kahr - Walking Blues
TTITLE7=Albert King and Steve Ray Vaughan - Call It Stormy Monday
TTITLE8=Bryan Lee - I'll Play The Blues For You
TTITLE9=ZZ Top - Jesus Just Left Chicago
EXTD=
EXTT0=
EXTT1=
EXTT2=
EXTT3=
EXTT4=
EXTT5=
EXTT6=
EXTT7=
EXTT8=
EXTT9=
PLAYORDER=
